<svg width="1200" height="360" viewBox="0 0 1200 360" fill="none" xmlns="http://www.w3.org/2000/svg">
  <defs>
    <linearGradient id="bg" x1="0" y1="0" x2="1200" y2="360" gradientUnits="userSpaceOnUse">
      <stop stop-color="#0F172A"/>
      <stop offset="0.52" stop-color="#1E2A3A"/>
      <stop offset="1" stop-color="#0B5C75"/>
    </linearGradient>
    <linearGradient id="accent" x1="140" y1="78" x2="1080" y2="288" gradientUnits="userSpaceOnUse">
      <stop stop-color="#55C9EA"/>
      <stop offset="1" stop-color="#7DD3FC"/>
    </linearGradient>
    <filter id="softGlow" x="-30%" y="-30%" width="160%" height="160%">
      <feGaussianBlur stdDeviation="24" result="blur"/>
      <feColorMatrix in="blur" type="matrix" values="0 0 0 0 0.33 0 0 0 0 0.79 0 0 0 0 0.92 0 0 0 0.45 0"/>
      <feBlend in="SourceGraphic" mode="screen"/>
    </filter>
  </defs>

  <rect width="1200" height="360" rx="28" fill="url(#bg)"/>
  <circle cx="990" cy="92" r="118" fill="#55C9EA" opacity="0.12"/>
  <circle cx="1028" cy="260" r="162" fill="#38BDF8" opacity="0.10"/>
  <circle cx="104" cy="304" r="126" fill="#55C9EA" opacity="0.08"/>

  <path d="M132 286C258 226 338 226 464 286C590 346 684 346 810 286C936 226 1012 226 1088 266" stroke="url(#accent)" stroke-width="2.5" opacity="0.5"/>
  <path d="M132 250C258 190 338 190 464 250C590 310 684 310 810 250C936 190 1012 190 1088 230" stroke="#55C9EA" stroke-width="1.5" opacity="0.22"/>

  <g filter="url(#softGlow)">
    <rect x="86" y="80" width="118" height="118" rx="30" fill="#102235" stroke="#55C9EA" stroke-width="2"/>
    <path d="M126 151H166M126 124H176M126 178H154" stroke="#55C9EA" stroke-width="10" stroke-linecap="round"/>
  </g>

  <text x="238" y="132" fill="#EAF8FF" font-family="Inter, Segoe UI, Arial, sans-serif" font-size="54" font-weight="800" letter-spacing="1">ElioAILab</text>
  <text x="241" y="181" fill="#A8DFF0" font-family="Inter, Segoe UI, Arial, sans-serif" font-size="24" font-weight="600" letter-spacing="3">AI CODING / AI VIDEO</text>
  <text x="241" y="228" fill="#D7EEF6" font-family="Inter, Segoe UI, Arial, sans-serif" font-size="25" font-weight="500">Building useful workflows with AI.</text>

  <g opacity="0.92">
    <rect x="242" y="256" width="148" height="42" rx="21" fill="#0B1727" stroke="#55C9EA" stroke-opacity="0.65"/>
    <text x="270" y="284" fill="#CFF7FF" font-family="Inter, Segoe UI, Arial, sans-serif" font-size="17" font-weight="700">AI Coding</text>
    <rect x="408" y="256" width="132" height="42" rx="21" fill="#0B1727" stroke="#55C9EA" stroke-opacity="0.65"/>
    <text x="436" y="284" fill="#CFF7FF" font-family="Inter, Segoe UI, Arial, sans-serif" font-size="17" font-weight="700">AI Video</text>
    <rect x="558" y="256" width="204" height="42" rx="21" fill="#0B1727" stroke="#55C9EA" stroke-opacity="0.65"/>
    <text x="587" y="284" fill="#CFF7FF" font-family="Inter, Segoe UI, Arial, sans-serif" font-size="17" font-weight="700">Elio's AI Diary</text>
  </g>
</svg>
